<svg version="1.1" id="Layer_1" xmlns="http://www.w3.org/2000/svg" xmlns:xlink="http://www.w3.org/1999/xlink" x="0px" y="0px"
	 width="100%" viewBox="0 0 1080 1080" enable-background="new 0 0 1080 1080" xml:space="preserve">
<path fill="#FFFFFF" opacity="1.000000" stroke="none" 
	d="
M734.000000,1081.000000 
	C489.361511,1081.000000 245.223022,1081.000000 1.042263,1081.000000 
	C1.042263,721.069702 1.042263,361.139435 1.042263,1.104576 
	C360.888733,1.104576 720.777466,1.104576 1080.833130,1.104576 
	C1080.833130,360.999939 1080.833130,720.999939 1080.833130,1081.000000 
	C965.472351,1081.000000 849.986145,1081.000000 734.000000,1081.000000 
M857.675903,784.323914 
	C860.553223,787.316650 863.578308,790.182129 866.284424,793.322510 
	C885.952087,816.145813 905.413025,839.150208 925.334656,861.748779 
	C928.282654,865.092957 933.086304,868.031616 937.417664,868.716919 
	C958.122864,871.992615 976.512817,865.818970 992.746887,852.941101 
	C995.174194,851.015625 997.253418,848.442749 998.923584,845.808044 
	C1005.403198,835.586609 1003.437317,824.598267 992.520264,814.099243 
	C972.481201,794.827637 952.121033,775.889160 931.841980,756.868042 
	C921.535034,747.200378 911.113342,737.655090 900.937378,727.128357 
	C901.215942,717.642822 901.848389,708.151672 901.700134,698.672852 
	C901.382446,678.369385 901.303650,658.028809 899.938354,637.783630 
	C898.328857,613.916382 895.937683,590.075806 893.035828,566.327454 
	C887.993103,525.058960 877.688477,485.011108 862.868408,446.177979 
	C842.696472,393.321350 813.520325,346.379272 771.483459,307.907928 
	C738.877747,278.067780 701.557495,255.929260 660.486450,240.117859 
	C617.398621,223.530029 572.495728,214.030762 526.711304,209.339325 
	C500.268341,206.629776 473.598572,205.785248 447.004395,205.010376 
	C425.531219,204.384720 403.989258,204.462585 382.530273,205.413193 
	C353.791290,206.686264 325.094604,208.987442 296.396179,211.073074 
	C280.144836,212.254150 263.917664,213.796143 247.695328,215.340683 
	C229.162796,217.105179 210.660645,219.195068 192.121384,220.880600 
	C174.235092,222.506760 156.339508,224.205215 138.409836,225.137222 
	C113.823936,226.415222 89.204491,227.084366 64.593399,227.810333 
	C59.733929,227.953674 54.847179,227.172241 48.955738,226.743225 
	C50.121094,228.372131 50.540871,229.039307 51.038242,229.642502 
	C70.801315,253.611130 87.757584,279.511505 103.021301,306.490631 
	C125.758781,346.679840 144.560867,388.789246 162.907761,431.111481 
	C188.786728,490.808563 214.315536,550.665710 240.982849,610.010010 
	C259.510162,651.239868 282.343384,690.171936 309.293030,726.573853 
	C330.317261,754.972046 354.402740,780.431946 382.707977,801.678223 
	C432.790009,839.270325 489.744446,857.513245 551.854492,859.603088 
	C572.895630,860.311096 594.105347,858.832764 615.117004,856.980774 
	C653.504944,853.597168 691.039368,845.172729 727.637817,833.377930 
	C758.794067,823.337158 789.459229,811.731934 820.144592,800.290161 
	C832.720215,795.601135 844.778076,789.523499 857.675903,784.323914 
z"/>
<path fill="#B2E05A" opacity="1.000000" stroke="none" 
	d="
M857.071533,784.077637 
	C844.778076,789.523499 832.720215,795.601135 820.144592,800.290161 
	C789.459229,811.731934 758.794067,823.337158 727.637817,833.377930 
	C691.039368,845.172729 653.504944,853.597168 615.117004,856.980774 
	C594.105347,858.832764 572.895630,860.311096 551.854492,859.603088 
	C489.744446,857.513245 432.790009,839.270325 382.707977,801.678223 
	C354.402740,780.431946 330.317261,754.972046 309.293030,726.573853 
	C282.343384,690.171936 259.510162,651.239868 240.982849,610.010010 
	C214.315536,550.665710 188.786728,490.808563 162.907761,431.111481 
	C144.560867,388.789246 125.758781,346.679840 103.021301,306.490631 
	C87.757584,279.511505 70.801315,253.611130 51.038242,229.642502 
	C50.540871,229.039307 50.121094,228.372131 48.955738,226.743225 
	C54.847179,227.172241 59.733929,227.953674 64.593399,227.810333 
	C89.204491,227.084366 113.823936,226.415222 138.409836,225.137222 
	C156.339508,224.205215 174.235092,222.506760 192.121384,220.880600 
	C210.660645,219.195068 229.162796,217.105179 247.695328,215.340683 
	C263.917664,213.796143 280.144836,212.254150 296.396179,211.073074 
	C325.094604,208.987442 353.791290,206.686264 382.530273,205.413193 
	C403.989258,204.462585 425.531219,204.384720 447.004395,205.010376 
	C473.598572,205.785248 500.268341,206.629776 526.711304,209.339325 
	C572.495728,214.030762 617.398621,223.530029 660.486450,240.117859 
	C701.557495,255.929260 738.877747,278.067780 771.483459,307.907928 
	C813.520325,346.379272 842.696472,393.321350 862.868408,446.177979 
	C877.688477,485.011108 887.993103,525.058960 893.035828,566.327454 
	C895.937683,590.075806 898.328857,613.916382 899.938354,637.783630 
	C901.303650,658.028809 901.382446,678.369385 901.700134,698.672852 
	C901.848389,708.151672 901.215942,717.642822 900.515076,727.537292 
	C892.488892,721.266541 885.011963,714.435364 877.255066,707.938354 
	C860.335815,693.767334 843.509094,679.469971 826.216858,665.763855 
	C798.778198,644.015442 771.551880,621.931396 743.201172,601.419250 
	C710.657227,577.873230 677.618469,554.880615 643.635986,533.487976 
	C605.399475,509.417389 566.332214,486.561340 526.751160,464.766418 
	C497.342407,448.572754 466.643188,434.694000 436.329681,420.179138 
	C395.221222,400.495422 352.802704,383.931854 310.068787,368.164886 
	C305.046143,366.311737 299.946960,364.666046 294.883240,362.924164 
	C300.856689,367.369904 307.278900,370.743225 313.614563,374.272003 
	C348.183563,393.525970 383.009827,412.339630 417.201355,432.243103 
	C446.491394,449.293274 475.375427,467.096222 503.855316,485.470947 
	C557.896179,520.337219 610.269348,557.580261 660.036377,598.387695 
	C678.766724,613.746033 697.760376,628.810181 715.990845,644.744263 
	C736.255066,662.455872 756.339294,680.444946 775.502441,699.327515 
	C802.534363,725.963684 828.654663,753.525269 855.124451,780.730408 
	C855.997681,781.627930 856.432434,782.952271 857.071533,784.077637 
z"/>
<path fill="#89B03D" opacity="1.000000" stroke="none" 
	d="
M857.373718,784.200806 
	C856.432434,782.952271 855.997681,781.627930 855.124451,780.730408 
	C828.654663,753.525269 802.534363,725.963684 775.502441,699.327515 
	C756.339294,680.444946 736.255066,662.455872 715.990845,644.744263 
	C697.760376,628.810181 678.766724,613.746033 660.036377,598.387695 
	C610.269348,557.580261 557.896179,520.337219 503.855316,485.470947 
	C475.375427,467.096222 446.491394,449.293274 417.201355,432.243103 
	C383.009827,412.339630 348.183563,393.525970 313.614563,374.272003 
	C307.278900,370.743225 300.856689,367.369904 294.883240,362.924164 
	C299.946960,364.666046 305.046143,366.311737 310.068787,368.164886 
	C352.802704,383.931854 395.221222,400.495422 436.329681,420.179138 
	C466.643188,434.694000 497.342407,448.572754 526.751160,464.766418 
	C566.332214,486.561340 605.399475,509.417389 643.635986,533.487976 
	C677.618469,554.880615 710.657227,577.873230 743.201172,601.419250 
	C771.551880,621.931396 798.778198,644.015442 826.216858,665.763855 
	C843.509094,679.469971 860.335815,693.767334 877.255066,707.938354 
	C885.011963,714.435364 892.488892,721.266541 900.418152,728.000366 
	C911.113342,737.655090 921.535034,747.200378 931.841980,756.868042 
	C952.121033,775.889160 972.481201,794.827637 992.520264,814.099243 
	C1003.437317,824.598267 1005.403198,835.586609 998.923584,845.808044 
	C997.253418,848.442749 995.174194,851.015625 992.746887,852.941101 
	C976.512817,865.818970 958.122864,871.992615 937.417664,868.716919 
	C933.086304,868.031616 928.282654,865.092957 925.334656,861.748779 
	C905.413025,839.150208 885.952087,816.145813 866.284424,793.322510 
	C863.578308,790.182129 860.553223,787.316650 857.373718,784.200806 
z"/>
</svg>