<svg version="1.1" id="Layer_1" xmlns="http://www.w3.org/2000/svg" xmlns:xlink="http://www.w3.org/1999/xlink" x="0px" y="0px"
	 width="100%" viewBox="0 0 225 225" enable-background="new 0 0 225 225" xml:space="preserve">
<path fill="#48B9E8" opacity="1.000000" stroke="none" 
	d="
M126.000000,226.000000 
	C117.645767,226.000000 109.291534,226.000000 100.259842,225.667786 
	C98.118759,225.031311 96.656151,224.722153 95.191383,224.423508 
	C46.077236,214.409760 15.582951,184.965591 3.374137,136.439133 
	C2.582550,133.292801 1.791370,130.146378 1.000000,127.000000 
	C1.000000,118.312439 1.000000,109.624870 1.332956,100.260956 
	C1.826696,98.770966 1.995614,97.958847 2.147102,97.143486 
	C10.767966,50.743229 37.353973,20.009686 82.348450,5.497235 
	C88.417755,3.539654 94.775703,2.477032 101.000000,1.000000 
	C109.020897,1.000000 117.041801,1.000000 125.748550,1.334647 
	C176.294327,8.795068 212.610870,42.007187 223.620560,90.546776 
	C224.411026,94.031792 225.206726,97.515617 226.000000,101.000000 
	C226.000000,109.354233 226.000000,117.708466 225.667938,126.739952 
	C225.031555,128.880630 224.722610,130.343124 224.423645,131.807632 
	C214.401184,180.904175 184.967484,211.405273 136.452835,223.609375 
	C132.987396,224.481125 129.485138,225.206543 126.000000,226.000000 
M37.005432,176.475861 
	C60.950424,204.097534 91.207108,216.528046 127.380806,211.534592 
	C180.154709,204.249649 216.454849,157.699020 212.088882,104.503860 
	C207.265579,45.736473 150.015381,3.633617 92.591171,16.623037 
	C20.021719,33.038326 -9.347690,116.534256 37.005432,176.475861 
z"/>
<path fill="#FEFFFF" opacity="1.000000" stroke="none" 
	d="
M126.468658,226.000000 
	C129.485138,225.206543 132.987396,224.481125 136.452835,223.609375 
	C184.967484,211.405273 214.401184,180.904175 224.423645,131.807632 
	C224.722610,130.343124 225.031555,128.880630 225.667938,127.208603 
	C226.000000,159.927292 226.000000,192.854599 226.000000,226.000000 
	C192.979431,226.000000 159.958374,226.000000 126.468658,226.000000 
z"/>
<path fill="#FEFFFF" opacity="1.000000" stroke="none" 
	d="
M226.000000,100.531342 
	C225.206726,97.515617 224.411026,94.031792 223.620560,90.546776 
	C212.610870,42.007187 176.294327,8.795068 126.217194,1.334647 
	C159.260269,1.000000 192.520523,1.000000 226.000000,1.000000 
	C226.000000,34.020573 226.000000,67.041626 226.000000,100.531342 
z"/>
<path fill="#FEFFFF" opacity="1.000000" stroke="none" 
	d="
M100.531342,1.000000 
	C94.775703,2.477032 88.417755,3.539654 82.348450,5.497235 
	C37.353973,20.009686 10.767966,50.743229 2.147102,97.143486 
	C1.995614,97.958847 1.826696,98.770966 1.332956,99.792297 
	C1.000000,67.072693 1.000000,34.145393 1.000000,1.000000 
	C34.020573,1.000000 67.041626,1.000000 100.531342,1.000000 
z"/>
<path fill="#FEFFFF" opacity="1.000000" stroke="none" 
	d="
M1.000000,127.468658 
	C1.791370,130.146378 2.582550,133.292801 3.374137,136.439133 
	C15.582951,184.965591 46.077236,214.409760 95.191383,224.423508 
	C96.656151,224.722153 98.118759,225.031311 99.791183,225.667786 
	C67.073067,226.000000 34.146137,226.000000 1.000000,226.000000 
	C1.000000,193.312759 1.000000,160.625046 1.000000,127.468658 
z"/>
<path fill="#FDFEFF" opacity="1.000000" stroke="none" 
	d="
M36.781033,176.201294 
	C-9.347690,116.534256 20.021719,33.038326 92.591171,16.623037 
	C150.015381,3.633617 207.265579,45.736473 212.088882,104.503860 
	C216.454849,157.699020 180.154709,204.249649 127.380806,211.534592 
	C91.207108,216.528046 60.950424,204.097534 36.781033,176.201294 
M158.766113,69.991295 
	C156.325317,69.659439 153.885056,69.043335 151.443634,69.038673 
	C118.644707,68.975967 85.845612,68.988785 53.046581,69.007530 
	C45.835052,69.011650 44.009964,70.889915 44.005459,78.243202 
	C43.990673,102.384628 43.996140,126.526062 44.001747,150.667496 
	C44.003693,159.042587 45.421986,160.455734 53.940460,160.457855 
	C94.065178,160.467804 134.189896,160.462494 174.314621,160.460693 
	C175.313385,160.460648 176.312866,160.458221 177.310776,160.422363 
	C181.718582,160.264038 184.091171,158.070068 184.091965,153.562531 
	C184.096573,127.756210 184.136810,101.949760 184.059769,76.143669 
	C184.044464,71.016571 181.043228,68.621758 176.018326,69.001114 
	C170.591095,69.410843 165.152557,69.671013 158.766113,69.991295 
z"/>
<path fill="#49BAE8" opacity="1.000000" stroke="none" 
	d="
M159.242538,69.993858 
	C165.152557,69.671013 170.591095,69.410843 176.018326,69.001114 
	C181.043228,68.621758 184.044464,71.016571 184.059769,76.143669 
	C184.136810,101.949760 184.096573,127.756210 184.091965,153.562531 
	C184.091171,158.070068 181.718582,160.264038 177.310776,160.422363 
	C176.312866,160.458221 175.313385,160.460648 174.314621,160.460693 
	C134.189896,160.462494 94.065178,160.467804 53.940460,160.457855 
	C45.421986,160.455734 44.003693,159.042587 44.001747,150.667496 
	C43.996140,126.526062 43.990673,102.384628 44.005459,78.243202 
	C44.009964,70.889915 45.835052,69.011650 53.046581,69.007530 
	C85.845612,68.988785 118.644707,68.975967 151.443634,69.038673 
	C153.885056,69.043335 156.325317,69.659439 159.242538,69.993858 
M58.214729,154.225479 
	C58.214729,154.225479 58.598148,154.305206 58.598148,154.305206 
	C58.598148,154.305206 58.964287,154.126465 59.896358,153.981903 
	C96.239471,153.981903 132.582581,153.981903 168.925690,153.981903 
	C169.018021,153.652466 169.110336,153.323029 169.202652,152.993607 
	C154.068848,141.982056 138.935043,130.970505 123.283546,119.582275 
	C116.658821,128.423981 109.593811,128.659897 102.887383,119.959259 
	C87.981041,130.979599 73.664062,141.553192 59.376083,152.165848 
	C58.776405,152.611282 58.446823,153.420349 58.214729,154.225479 
M146.200378,93.705734 
	C153.328232,88.146530 160.456070,82.587334 168.189468,76.555847 
	C131.594604,76.555847 96.071777,76.555847 60.345253,76.555847 
	C60.647049,77.383484 60.665077,77.784599 60.871613,77.949242 
	C77.547981,91.243286 94.202263,104.566109 111.025963,117.671410 
	C111.974655,118.410416 114.762222,117.931412 115.954399,117.035378 
	C125.942490,109.528404 135.757431,101.791069 146.200378,93.705734 
M136.098511,120.424484 
	C149.503067,130.160782 162.907639,139.897079 176.771469,149.966965 
	C176.771469,125.885269 176.771469,102.715179 176.771469,78.623688 
	C160.650101,91.157745 145.222015,103.152794 129.435135,115.426804 
	C131.826263,117.226189 133.673813,118.616524 136.098511,120.424484 
M92.499710,119.076225 
	C93.932823,117.979675 95.365929,116.883125 97.085533,115.567360 
	C81.747787,103.409836 66.737946,91.512230 51.316101,79.288048 
	C51.316101,102.995491 51.316101,125.796951 51.316101,149.518173 
	C65.308792,139.178986 78.624298,129.340164 92.499710,119.076225 
z"/>
<path fill="#FCFEFF" opacity="1.000000" stroke="none" 
	d="
M145.912460,93.914436 
	C135.757431,101.791069 125.942490,109.528404 115.954399,117.035378 
	C114.762222,117.931412 111.974655,118.410416 111.025963,117.671410 
	C94.202263,104.566109 77.547981,91.243286 60.871613,77.949242 
	C60.665077,77.784599 60.647049,77.383484 60.345253,76.555847 
	C96.071777,76.555847 131.594604,76.555847 168.189468,76.555847 
	C160.456070,82.587334 153.328232,88.146530 145.912460,93.914436 
z"/>
<path fill="#FEFFFF" opacity="1.000000" stroke="none" 
	d="
M57.991413,154.060013 
	C58.446823,153.420349 58.776405,152.611282 59.376083,152.165848 
	C73.664062,141.553192 87.981041,130.979599 102.887383,119.959259 
	C109.593811,128.659897 116.658821,128.423981 123.283546,119.582275 
	C138.935043,130.970505 154.068848,141.982056 169.202652,152.993607 
	C169.110336,153.323029 169.018021,153.652466 168.925690,153.981903 
	C132.582581,153.981903 96.239471,153.981903 59.189034,154.009216 
	C58.481712,154.036545 57.991413,154.060013 57.991413,154.060013 
z"/>
<path fill="#FEFEFF" opacity="1.000000" stroke="none" 
	d="
M135.809937,120.215675 
	C133.673813,118.616524 131.826263,117.226189 129.435135,115.426804 
	C145.222015,103.152794 160.650101,91.157745 176.771469,78.623688 
	C176.771469,102.715179 176.771469,125.885269 176.771469,149.966965 
	C162.907639,139.897079 149.503067,130.160782 135.809937,120.215675 
z"/>
<path fill="#FEFEFF" opacity="1.000000" stroke="none" 
	d="
M92.219757,119.288788 
	C78.624298,129.340164 65.308792,139.178986 51.316101,149.518173 
	C51.316101,125.796951 51.316101,102.995491 51.316101,79.288048 
	C66.737946,91.512230 81.747787,103.409836 97.085533,115.567360 
	C95.365929,116.883125 93.932823,117.979675 92.219757,119.288788 
z"/>
<path fill="#2EB3E6" opacity="1.000000" stroke="none" 
	d="
M58.103073,154.142746 
	C57.991413,154.060013 58.481712,154.036545 58.723000,154.081512 
	C58.964287,154.126465 58.598148,154.305206 58.598148,154.305206 
	C58.598148,154.305206 58.214729,154.225479 58.103073,154.142746 
z"/>
</svg>