<svg version="1.1" id="Layer_1" xmlns="http://www.w3.org/2000/svg" xmlns:xlink="http://www.w3.org/1999/xlink" x="0px" y="0px"
	 width="100%" viewBox="0 0 314 320" enable-background="new 0 0 314 320" xml:space="preserve">
<path fill="#F2F2F3" opacity="1.000000" stroke="none" 
	d="
M1.000000,308.000000 
	C1.000000,205.714828 1.000000,103.429657 1.000000,1.072243 
	C105.569199,1.072243 210.138474,1.072243 315.000000,1.072243 
	C315.000000,102.687912 315.000000,204.376114 314.531342,306.532166 
	C298.490631,307.785187 282.938568,306.186737 267.275604,308.631927 
	C255.724976,310.435150 243.664383,309.124786 231.837891,308.875793 
	C229.540756,308.827454 225.853119,307.837891 225.250793,306.315521 
	C223.084457,300.840302 218.886230,301.871094 214.903000,302.088562 
	C204.979370,302.630493 195.071777,303.760223 185.146362,303.912872 
	C165.820007,304.210114 146.485626,303.956146 127.155235,304.059265 
	C124.911438,304.071228 122.647171,304.801666 120.436493,305.370392 
	C117.359123,306.162170 114.364296,307.642059 111.260742,307.883392 
	C105.866180,308.302795 100.415474,308.000000 94.988304,308.000000 
	C63.658871,308.000000 32.329433,308.000000 1.000000,308.000000 
M289.705719,216.834885 
	C290.136993,215.182983 290.940063,213.532028 290.944305,211.879028 
	C291.020447,182.135941 291.002747,152.392624 290.989746,122.649353 
	C290.989258,121.537880 290.833588,120.426476 290.750214,119.315041 
	C290.006897,121.813675 290.204254,124.299355 289.951569,126.738411 
	C289.697662,129.189575 288.995636,131.594315 288.559753,133.081207 
	C288.368774,126.047630 288.177795,119.014061 288.184814,111.143761 
	C288.123444,109.427223 288.062073,107.710678 288.373535,105.686821 
	C288.157776,104.986961 287.941986,104.287102 287.624451,102.721802 
	C287.442139,100.403152 287.359711,98.071609 287.062347,95.767815 
	C283.411987,67.488136 269.667236,46.514183 242.449432,36.066128 
	C223.624954,28.840002 203.710403,29.528189 183.041489,29.588562 
	C164.374359,29.661537 145.707245,29.734510 126.313072,29.468027 
	C114.174591,30.023058 102.002991,30.196247 89.907402,31.245676 
	C78.872986,32.203037 68.282074,35.397564 58.809254,41.317585 
	C37.580753,54.584297 25.874592,74.329834 25.205040,98.865677 
	C24.070282,140.449020 24.590261,182.084503 24.918373,223.694092 
	C24.975021,230.878021 26.800894,238.278030 29.050461,245.173386 
	C37.210960,270.186798 54.798298,285.268036 80.479378,292.400024 
	C82.972916,292.652863 85.466454,292.905670 88.703674,293.115875 
	C89.433517,293.247803 90.163353,293.379761 91.222046,294.141052 
	C93.807335,294.135651 96.392632,294.130219 99.833344,294.038879 
	C103.217117,294.335754 106.600899,294.632629 110.575890,295.526917 
	C115.335098,295.686554 120.096634,296.021088 124.852890,295.958099 
	C129.897659,295.891266 134.937439,295.446838 140.908813,295.018951 
	C158.278198,295.060181 175.647568,295.101410 193.578995,295.633820 
	C195.722778,295.422211 197.866547,295.210602 200.889557,294.822388 
	C204.938660,294.602631 208.987747,294.382874 213.623047,294.665100 
	C216.449646,294.272095 219.276260,293.879089 222.730652,293.262451 
	C223.172287,293.243591 223.613907,293.224762 224.526733,293.670105 
	C226.356110,293.171387 228.185501,292.672668 230.672119,291.950134 
	C231.791382,291.691010 232.910645,291.431885 234.345871,291.567566 
	C234.898605,291.372223 235.451324,291.176910 236.767868,290.918854 
	C242.745300,288.111969 249.044418,285.830505 254.642197,282.403473 
	C274.521362,270.233215 284.131256,251.610336 287.309723,228.819626 
	C287.349548,228.710129 287.446930,228.581100 287.417694,228.495026 
	C287.347809,228.289032 287.218445,228.103241 287.208984,227.111618 
	C287.421631,224.734787 287.634308,222.357971 288.330597,219.555786 
	C288.523529,218.716110 288.716461,217.876434 289.705719,216.834885 
M289.289276,221.832077 
	C289.372681,221.777603 289.456116,221.723129 289.289276,221.832077 
z"/>
<path fill="#F0F0F0" opacity="1.000000" stroke="none" 
	d="
M1.000000,308.476654 
	C32.329433,308.000000 63.658871,308.000000 94.988304,308.000000 
	C100.415474,308.000000 105.866180,308.302795 111.260742,307.883392 
	C114.364296,307.642059 117.359123,306.162170 120.436493,305.370392 
	C122.647171,304.801666 124.911438,304.071228 127.155235,304.059265 
	C146.485626,303.956146 165.820007,304.210114 185.146362,303.912872 
	C195.071777,303.760223 204.979370,302.630493 214.903000,302.088562 
	C218.886230,301.871094 223.084457,300.840302 225.250793,306.315521 
	C225.853119,307.837891 229.540756,308.827454 231.837891,308.875793 
	C243.664383,309.124786 255.724976,310.435150 267.275604,308.631927 
	C282.938568,306.186737 298.490631,307.785187 314.531342,307.000000 
	C315.000000,311.660461 315.000000,316.320892 315.000000,320.974976 
	C210.333328,320.968628 105.666656,320.968628 1.000000,320.968628 
	C1.000000,316.942627 1.000000,312.947968 1.000000,308.476654 
z"/>
<path fill="#316A96" opacity="1.000000" stroke="none" 
	d="
M90.893196,293.511688 
	C90.163353,293.379761 89.433517,293.247803 88.043114,292.871338 
	C84.931038,292.355865 82.479523,292.084930 80.028015,291.813965 
	C54.798298,285.268036 37.210960,270.186798 29.050461,245.173386 
	C26.800894,238.278030 24.975021,230.878021 24.918373,223.694092 
	C24.590261,182.084503 24.070282,140.449020 25.205040,98.865677 
	C25.874592,74.329834 37.580753,54.584297 58.809254,41.317585 
	C68.282074,35.397564 78.872986,32.203037 89.907402,31.245676 
	C102.002991,30.196247 114.174591,30.023058 126.937897,29.967278 
	C128.360580,30.641546 129.158173,30.967833 129.956360,30.969303 
	C146.768082,31.000298 163.579987,31.018953 180.391434,30.944427 
	C181.580780,30.939156 182.766830,30.194853 183.954422,29.794189 
	C203.710403,29.528189 223.624954,28.840002 242.449432,36.066128 
	C269.667236,46.514183 283.411987,67.488136 287.062347,95.767815 
	C287.359711,98.071609 287.442139,100.403152 287.487976,103.450676 
	C287.567902,104.784416 287.784332,105.389275 288.000732,105.994141 
	C288.062073,107.710678 288.123444,109.427223 287.803894,111.871567 
	C287.282349,113.408661 287.019257,114.217873 287.018707,115.027260 
	C286.998291,144.979080 286.987671,174.930954 287.048920,204.882660 
	C287.051758,206.268616 287.727997,207.653198 288.210815,209.466385 
	C288.244690,212.256302 288.158325,214.618271 287.829468,217.155731 
	C287.673615,218.214523 287.760284,219.097839 287.846985,219.981140 
	C287.634308,222.357971 287.421631,224.734787 287.071045,227.782501 
	C286.962555,228.642090 286.992035,228.830780 287.021515,229.019485 
	C284.131256,251.610336 274.521362,270.233215 254.642197,282.403473 
	C249.044418,285.830505 242.745300,288.111969 236.221161,290.773926 
	C235.126266,290.810242 234.578079,290.991516 234.029907,291.172760 
	C232.910645,291.431885 231.791382,291.691010 229.947418,291.994934 
	C227.500336,292.428436 225.777939,292.817169 224.055542,293.205902 
	C223.613907,293.224762 223.172287,293.243591 221.987457,293.258789 
	C218.508453,293.557800 215.772644,293.860443 213.036850,294.163086 
	C208.987747,294.382874 204.938660,294.602631 200.017654,294.823486 
	C197.102814,294.930573 195.059891,295.036621 193.016953,295.142639 
	C175.647568,295.101410 158.278198,295.060181 139.987091,294.989136 
	C129.371811,294.949371 119.678246,294.939423 109.984680,294.929504 
	C106.600899,294.632629 103.217117,294.335754 99.093216,293.841797 
	C95.866455,293.600372 93.379822,293.556030 90.893196,293.511688 
M45.009388,203.637772 
	C45.187450,204.028061 45.363163,204.419540 45.558994,204.800705 
	C45.563301,204.809082 45.903316,204.707291 45.908085,204.643539 
	C45.957428,203.983307 45.989853,203.320328 45.989944,202.658112 
	C45.993713,175.455841 45.995197,148.253555 45.984432,121.051285 
	C45.984184,120.426857 45.840076,119.802475 45.763073,119.178078 
	C45.540020,119.291618 45.287270,119.371567 45.105728,119.532066 
	C45.006523,119.619766 45.027843,119.843788 44.421520,120.609779 
	C44.281757,121.418015 44.020550,122.226143 44.019844,123.034500 
	C43.997593,148.459671 43.986786,173.884888 44.042274,199.309952 
	C44.044964,200.541092 44.664452,201.770874 45.009388,203.637772 
M48.781933,222.641479 
	C49.178074,225.442978 49.409267,228.279617 49.997101,231.040298 
	C53.837013,249.073975 63.657276,262.124817 81.975258,267.000000 
	C90.098793,269.162018 98.653519,270.563385 107.041496,270.715881 
	C135.514526,271.233429 164.000778,271.138763 192.481323,271.056519 
	C200.960129,271.032043 209.469315,270.615509 217.908325,269.797974 
	C242.160965,267.448517 256.594482,255.021347 262.333801,231.427795 
	C263.738556,225.652908 264.525085,219.583878 264.561768,213.643677 
	C264.771698,179.669479 264.744507,145.693085 264.629181,111.718010 
	C264.592773,100.983353 262.987976,90.402161 258.349274,80.612495 
	C250.292465,63.609146 235.570389,55.772381 217.818527,55.041595 
	C185.558243,53.713539 153.241669,53.631851 120.945831,53.364590 
	C111.645203,53.287624 102.270348,53.843552 93.043022,55.008408 
	C74.735756,57.319511 59.690109,65.145912 53.114243,83.576538 
	C50.361919,91.290665 48.626942,99.737457 48.381813,107.909698 
	C47.518257,136.699936 47.356529,165.514999 47.247360,194.321854 
	C47.212727,203.461380 48.174149,212.604660 48.781933,222.641479 
z"/>
<path fill="#F4F9FE" opacity="1.000000" stroke="none" 
	d="
M288.071991,216.980225 
	C288.158325,214.618271 288.244690,212.256302 288.313904,209.004120 
	C288.361176,183.415726 288.425598,158.717560 288.490021,134.019409 
	C288.995636,131.594315 289.697662,129.189575 289.951569,126.738411 
	C290.204254,124.299355 290.006897,121.813675 290.750214,119.315041 
	C290.833588,120.426476 290.989258,121.537880 290.989746,122.649353 
	C291.002747,152.392624 291.020447,182.135941 290.944305,211.879028 
	C290.940063,213.532028 290.136993,215.182983 289.099243,216.908569 
	C288.492798,216.982269 288.071991,216.980225 288.071991,216.980225 
z"/>
<path fill="#29547B" opacity="1.000000" stroke="none" 
	d="
M288.524902,133.550308 
	C288.425598,158.717560 288.361176,183.415726 288.193695,208.576141 
	C287.727997,207.653198 287.051758,206.268616 287.048920,204.882660 
	C286.987671,174.930954 286.998291,144.979080 287.018707,115.027260 
	C287.019257,114.217873 287.282349,113.408661 287.704895,112.289925 
	C288.177795,119.014061 288.368774,126.047630 288.524902,133.550308 
z"/>
<path fill="#2A5B89" opacity="1.000000" stroke="none" 
	d="
M183.497955,29.691376 
	C182.766830,30.194853 181.580780,30.939156 180.391434,30.944427 
	C163.579987,31.018953 146.768082,31.000298 129.956360,30.969303 
	C129.158173,30.967833 128.360580,30.641546 127.301422,30.137007 
	C145.707245,29.734510 164.374359,29.661537 183.497955,29.691376 
z"/>
<path fill="#D7E6EC" opacity="1.000000" stroke="none" 
	d="
M110.280289,295.228210 
	C119.678246,294.939423 129.371811,294.949371 139.522385,295.063354 
	C134.937439,295.446838 129.897659,295.891266 124.852890,295.958099 
	C120.096634,296.021088 115.335098,295.686554 110.280289,295.228210 
z"/>
<path fill="#C0D5DE" opacity="1.000000" stroke="none" 
	d="
M213.329956,294.414093 
	C215.772644,293.860443 218.508453,293.557800 221.673553,293.370605 
	C219.276260,293.879089 216.449646,294.272095 213.329956,294.414093 
z"/>
<path fill="#C0D3E0" opacity="1.000000" stroke="none" 
	d="
M91.057617,293.826355 
	C93.379822,293.556030 95.866455,293.600372 98.665497,293.884766 
	C96.392632,294.130219 93.807335,294.135651 91.057617,293.826355 
z"/>
<path fill="#C0D3E0" opacity="1.000000" stroke="none" 
	d="
M80.253693,292.106995 
	C82.479523,292.084930 84.931038,292.355865 87.671280,292.892639 
	C85.466454,292.905670 82.972916,292.652863 80.253693,292.106995 
z"/>
<path fill="#C0D5DE" opacity="1.000000" stroke="none" 
	d="
M224.291138,293.437988 
	C225.777939,292.817169 227.500336,292.428436 229.618805,292.106812 
	C228.185501,292.672668 226.356110,293.171387 224.291138,293.437988 
z"/>
<path fill="#D7E6EC" opacity="1.000000" stroke="none" 
	d="
M193.297974,295.388245 
	C195.059891,295.036621 197.102814,294.930573 199.578033,294.911774 
	C197.866547,295.210602 195.722778,295.422211 193.297974,295.388245 
z"/>
<path fill="#7C9FBF" opacity="1.000000" stroke="none" 
	d="
M287.829468,217.155731 
	C288.071991,216.980225 288.492798,216.982269 288.701080,217.009521 
	C288.716461,217.876434 288.523529,218.716110 288.088806,219.768463 
	C287.760284,219.097839 287.673615,218.214523 287.829468,217.155731 
z"/>
<path fill="#C0D5DE" opacity="1.000000" stroke="none" 
	d="
M234.187897,291.370178 
	C234.578079,290.991516 235.126266,290.810242 235.839249,290.805298 
	C235.451324,291.176910 234.898605,291.372223 234.187897,291.370178 
z"/>
<path fill="#7C9FBF" opacity="1.000000" stroke="none" 
	d="
M288.187134,105.840485 
	C287.784332,105.389275 287.567902,104.784416 287.538849,103.883392 
	C287.941986,104.287102 288.157776,104.986961 288.187134,105.840485 
z"/>
<path fill="#F4F9FE" opacity="1.000000" stroke="none" 
	d="
M289.414429,221.750366 
	C289.456116,221.723129 289.372681,221.777603 289.414429,221.750366 
z"/>
<path fill="#7C9FBF" opacity="1.000000" stroke="none" 
	d="
M287.165619,228.919556 
	C286.992035,228.830780 286.962555,228.642090 287.023071,228.181351 
	C287.218445,228.103241 287.347809,228.289032 287.417694,228.495026 
	C287.446930,228.581100 287.349548,228.710129 287.165619,228.919556 
z"/>
<path fill="#F1F2F2" opacity="1.000000" stroke="none" 
	d="
M48.730843,222.193848 
	C48.174149,212.604660 47.212727,203.461380 47.247360,194.321854 
	C47.356529,165.514999 47.518257,136.699936 48.381813,107.909698 
	C48.626942,99.737457 50.361919,91.290665 53.114243,83.576538 
	C59.690109,65.145912 74.735756,57.319511 93.043022,55.008408 
	C102.270348,53.843552 111.645203,53.287624 120.945831,53.364590 
	C153.241669,53.631851 185.558243,53.713539 217.818527,55.041595 
	C235.570389,55.772381 250.292465,63.609146 258.349274,80.612495 
	C262.987976,90.402161 264.592773,100.983353 264.629181,111.718010 
	C264.744507,145.693085 264.771698,179.669479 264.561768,213.643677 
	C264.525085,219.583878 263.738556,225.652908 262.333801,231.427795 
	C256.594482,255.021347 242.160965,267.448517 217.908325,269.797974 
	C209.469315,270.615509 200.960129,271.032043 192.481323,271.056519 
	C164.000778,271.138763 135.514526,271.233429 107.041496,270.715881 
	C98.653519,270.563385 90.098793,269.162018 81.975258,267.000000 
	C63.657276,262.124817 53.837013,249.073975 49.997101,231.040298 
	C49.409267,228.279617 49.178074,225.442978 48.730843,222.193848 
M164.795792,229.815948 
	C166.762634,229.494919 168.747086,229.256393 170.693665,228.840546 
	C202.167221,222.116776 224.935425,193.826889 224.375595,161.398117 
	C223.760178,125.750488 197.695312,98.106651 164.218796,94.549072 
	C135.231598,91.468582 112.032867,102.845947 97.386627,128.111832 
	C82.618538,153.587891 84.638878,179.295654 101.878281,203.128540 
	C113.107399,218.652405 128.683655,227.676254 148.903641,229.937912 
	C153.932953,229.845993 158.962265,229.754074 164.795792,229.815948 
M238.669830,102.160378 
	C246.300369,93.552971 242.686768,82.541138 236.045517,78.145569 
	C229.223175,73.630135 220.111404,74.904564 214.873505,81.137215 
	C209.404495,87.644814 209.934326,96.697815 216.136948,102.725883 
	C222.229858,108.647346 230.898483,108.631470 238.669830,102.160378 
z"/>
<path fill="#2A5D97" opacity="1.000000" stroke="none" 
	d="
M44.994808,120.006332 
	C45.027843,119.843788 45.006523,119.619766 45.105728,119.532066 
	C45.287270,119.371567 45.540020,119.291618 45.763073,119.178078 
	C45.840076,119.802475 45.984184,120.426857 45.984432,121.051285 
	C45.995197,148.253555 45.993713,175.455841 45.989944,202.658112 
	C45.989853,203.320328 45.957428,203.983307 45.908085,204.643539 
	C45.903316,204.707291 45.563301,204.809082 45.558994,204.800705 
	C45.363163,204.419540 45.187450,204.028061 45.003853,202.850754 
	C44.997150,174.711273 44.995979,147.358795 44.994808,120.006332 
z"/>
<path fill="#336DA6" opacity="1.000000" stroke="none" 
	d="
M44.708164,120.308060 
	C44.995979,147.358795 44.997150,174.711273 44.997513,202.532516 
	C44.664452,201.770874 44.044964,200.541092 44.042274,199.309952 
	C43.986786,173.884888 43.997593,148.459671 44.019844,123.034500 
	C44.020550,122.226143 44.281757,121.418015 44.708164,120.308060 
z"/>
<path fill="#316A96" opacity="1.000000" stroke="none" 
	d="
M148.006577,229.656464 
	C128.683655,227.676254 113.107399,218.652405 101.878281,203.128540 
	C84.638878,179.295654 82.618538,153.587891 97.386627,128.111832 
	C112.032867,102.845947 135.231598,91.468582 164.218796,94.549072 
	C197.695312,98.106651 223.760178,125.750488 224.375595,161.398117 
	C224.935425,193.826889 202.167221,222.116776 170.693665,228.840546 
	C168.747086,229.256393 166.762634,229.494919 164.259705,229.379440 
	C160.690887,228.628357 157.650833,228.020691 154.627914,228.096588 
	C152.409149,228.152298 150.212875,229.104034 148.006577,229.656464 
M199.435486,152.361496 
	C192.357620,125.385216 166.153030,111.394760 140.376358,120.830231 
	C118.210793,128.943878 106.225731,154.819473 114.406990,176.897797 
	C123.109444,200.382645 148.436646,212.265106 171.245636,204.020737 
	C188.274765,197.865524 204.511322,178.540955 199.435486,152.361496 
z"/>
<path fill="#346C96" opacity="1.000000" stroke="none" 
	d="
M238.413025,102.422974 
	C230.898483,108.631470 222.229858,108.647346 216.136948,102.725883 
	C209.934326,96.697815 209.404495,87.644814 214.873505,81.137215 
	C220.111404,74.904564 229.223175,73.630135 236.045517,78.145569 
	C242.686768,82.541138 246.300369,93.552971 238.413025,102.422974 
z"/>
<path fill="#386688" opacity="1.000000" stroke="none" 
	d="
M148.455109,229.797180 
	C150.212875,229.104034 152.409149,228.152298 154.627914,228.096588 
	C157.650833,228.020691 160.690887,228.628357 163.857590,229.302551 
	C158.962265,229.754074 153.932953,229.845993 148.455109,229.797180 
z"/>
<path fill="#F1F2F3" opacity="1.000000" stroke="none" 
	d="
M199.526031,152.772217 
	C204.511322,178.540955 188.274765,197.865524 171.245636,204.020737 
	C148.436646,212.265106 123.109444,200.382645 114.406990,176.897797 
	C106.225731,154.819473 118.210793,128.943878 140.376358,120.830231 
	C166.153030,111.394760 192.357620,125.385216 199.526031,152.772217 
z"/>
</svg>